<svg width="1401" height="1143" viewBox="0 0 1401 1143" fill="none" xmlns="http://www.w3.org/2000/svg">
<g clip-path="url(#clip0_1_78)">
<g style="mix-blend-mode:multiply" opacity="0.6">
<path d="M1171.71 482.592C1120.81 431.687 1038.27 431.687 987.365 482.592L418.012 1051.95L206.13 840.064C155.224 789.16 72.6891 789.158 21.7821 840.066C-29.1249 890.971 -29.1249 973.507 21.7821 1024.41L325.838 1328.47C351.291 1353.92 384.651 1366.65 418.012 1366.65C451.373 1366.65 484.733 1353.92 510.186 1328.47L1171.71 666.941C1222.62 616.036 1222.62 533.499 1171.71 482.593V482.592Z" fill="white"/>
<path d="M1174.46 474.297C1123.56 423.392 1041.02 423.392 990.114 474.297L420.761 1043.65L208.879 831.769C157.973 780.865 75.4381 780.863 24.5311 831.771C-26.3759 882.676 -26.3759 965.213 24.5311 1016.12L328.587 1320.17C354.04 1345.63 387.4 1358.35 420.761 1358.35C454.122 1358.35 487.482 1345.63 512.935 1320.17L1174.46 658.646C1225.37 607.741 1225.37 525.203 1174.46 474.297Z" fill="url(#paint0_linear_1_78)"/>
<path d="M1177.21 466.001C1126.31 415.096 1043.77 415.096 992.864 466.001L423.511 1035.36L211.628 823.473C160.722 772.569 78.1871 772.567 27.2801 823.475C-23.6269 874.38 -23.6269 956.916 27.2801 1007.82L331.336 1311.88C356.789 1337.33 390.149 1350.06 423.51 1350.06C456.871 1350.06 490.231 1337.33 515.684 1311.88L1177.21 650.35C1228.12 599.445 1228.12 516.908 1177.21 466.002L1177.21 466.001Z" fill="url(#paint1_linear_1_78)"/>
<path d="M1179.96 457.706C1129.05 406.801 1046.52 406.801 995.613 457.706L426.26 1027.06L214.378 815.178C163.472 764.274 80.9371 764.272 30.0301 815.18C-20.8769 866.085 -20.8769 948.621 30.0301 999.528L334.086 1303.58C359.539 1329.04 392.899 1341.76 426.26 1341.76C459.621 1341.76 492.981 1329.04 518.434 1303.58L1179.96 642.055C1230.87 591.15 1230.87 508.612 1179.96 457.706Z" fill="url(#paint2_linear_1_78)"/>
<path d="M1182.71 449.411C1131.8 398.506 1049.27 398.506 998.362 449.411L429.009 1018.77L217.127 806.883C166.221 755.979 83.6861 755.977 32.7791 806.885C-18.1279 857.79 -18.1279 940.326 32.7791 991.233L336.835 1295.29C362.288 1320.74 395.648 1333.47 429.009 1333.47C462.37 1333.47 495.73 1320.74 521.183 1295.29L1182.71 633.76C1233.62 582.855 1233.62 500.317 1182.71 449.411Z" fill="url(#paint3_linear_1_78)"/>
<path d="M1185.46 441.115C1134.55 390.21 1052.02 390.21 1001.11 441.115L431.759 1010.47L219.877 798.587C168.971 747.683 86.4361 747.681 35.5291 798.589C-15.3779 849.494 -15.3779 932.03 35.5291 982.937L339.585 1286.99C365.038 1312.45 398.398 1325.17 431.759 1325.17C465.12 1325.17 498.48 1312.45 523.933 1286.99L1185.46 625.464C1236.37 574.559 1236.37 492.022 1185.46 441.116V441.115Z" fill="url(#paint4_linear_1_78)"/>
<path d="M1188.21 432.82C1137.3 381.915 1054.77 381.915 1003.86 432.82L434.508 1002.17L222.626 790.292C171.72 739.388 89.1842 739.386 38.2782 790.294C-12.6288 841.199 -12.6288 923.736 38.2782 974.642L342.334 1278.7C367.787 1304.15 401.147 1316.88 434.508 1316.88C467.869 1316.88 501.229 1304.15 526.682 1278.7L1188.21 617.169C1239.12 566.264 1239.12 483.726 1188.21 432.82Z" fill="url(#paint5_linear_1_78)"/>
<path d="M1190.96 424.525C1140.05 373.62 1057.52 373.62 1006.61 424.525L437.257 993.88L225.375 781.997C174.469 731.093 91.9329 731.091 41.0269 781.999C-9.88007 832.904 -9.88007 915.44 41.0269 966.347L345.083 1270.4C370.536 1295.85 403.896 1308.58 437.257 1308.58C470.618 1308.58 503.978 1295.86 529.431 1270.4L1190.96 608.874C1241.86 557.969 1241.86 475.431 1190.96 424.525Z" fill="url(#paint6_linear_1_78)"/>
<path d="M1193.71 416.23C1142.8 365.325 1060.26 365.325 1009.36 416.23L440.006 985.585L228.124 773.702C177.218 722.798 94.683 722.796 43.776 773.704C-7.13105 824.609 -7.13105 907.145 43.776 958.052L347.832 1262.11C373.285 1287.56 406.645 1300.29 440.006 1300.29C473.367 1300.29 506.727 1287.56 532.18 1262.11L1193.71 600.579C1244.61 549.674 1244.61 467.137 1193.71 416.231V416.23Z" fill="url(#paint7_linear_1_78)"/>
<path d="M1196.46 407.934C1145.55 357.029 1063.02 357.029 1012.11 407.934L442.756 977.289L230.873 765.406C179.967 714.502 97.4322 714.5 46.5252 765.408C-4.3808 816.313 -4.3808 898.85 46.5252 949.756L350.581 1253.81C376.034 1279.26 409.394 1291.99 442.755 1291.99C476.116 1291.99 509.476 1279.27 534.929 1253.81L1196.46 592.283C1247.36 541.378 1247.36 458.841 1196.46 407.935L1196.46 407.934Z" fill="url(#paint8_linear_1_78)"/>
<path d="M1199.21 399.639C1148.3 348.734 1065.76 348.734 1014.86 399.639L445.505 968.994L233.623 757.111C182.717 706.207 100.182 706.205 49.275 757.113C-1.63202 808.018 -1.63202 890.555 49.275 941.461L353.331 1245.52C378.784 1270.97 412.144 1283.7 445.505 1283.7C478.866 1283.7 512.226 1270.97 537.679 1245.52L1199.21 583.988C1250.11 533.083 1250.11 450.546 1199.21 399.64V399.639Z" fill="url(#paint9_linear_1_78)"/>
<path d="M1201.96 391.344C1151.05 340.439 1068.51 340.439 1017.61 391.344L448.254 960.699L236.372 748.816C185.466 697.912 102.931 697.91 52.024 748.818C1.11798 799.723 1.11798 882.259 52.024 933.166L356.08 1237.22C381.533 1262.67 414.893 1275.4 448.254 1275.4C481.615 1275.4 514.975 1262.68 540.428 1237.22L1201.96 575.693C1252.86 524.788 1252.86 442.25 1201.96 391.344Z" fill="url(#paint10_linear_1_78)"/>
<path d="M1204.71 383.049C1153.8 332.144 1071.26 332.144 1020.36 383.049L451.004 952.404L239.122 740.521C188.216 689.617 105.681 689.615 54.774 740.523C3.86798 791.428 3.86798 873.964 54.774 924.871L358.831 1228.93C384.284 1254.38 417.644 1267.11 451.005 1267.11C484.366 1267.11 517.726 1254.38 543.179 1228.93L1204.71 567.398C1255.61 516.493 1255.61 433.956 1204.71 383.05L1204.71 383.049Z" fill="url(#paint11_linear_1_78)"/>
<path d="M1207.45 374.753C1156.55 323.848 1074.01 323.848 1023.11 374.753L453.753 944.108L241.871 732.225C190.965 681.321 108.43 681.319 57.523 732.227C6.617 783.132 6.617 865.668 57.523 916.575L361.58 1220.63C387.033 1246.08 420.393 1258.81 453.754 1258.81C487.115 1258.81 520.475 1246.08 545.928 1220.63L1207.46 559.102C1258.36 508.197 1258.36 425.66 1207.46 374.754L1207.45 374.753Z" fill="url(#paint12_linear_1_78)"/>
<path d="M1210.2 366.458C1159.3 315.553 1076.76 315.553 1025.86 366.458L456.502 935.813L244.62 723.93C193.714 673.026 111.178 673.024 60.272 723.932C9.36603 774.837 9.36603 857.374 60.272 908.28L364.329 1212.34C389.782 1237.79 423.142 1250.51 456.503 1250.51C489.864 1250.51 523.224 1237.79 548.677 1212.34L1210.2 550.807C1261.11 499.902 1261.11 417.366 1210.2 366.459L1210.2 366.458Z" fill="url(#paint13_linear_1_78)"/>
<path d="M1212.95 358.163C1162.05 307.258 1079.51 307.258 1028.6 358.163L459.251 927.518L247.369 715.635C196.463 664.731 113.928 664.729 63.021 715.637C12.1151 766.542 12.1151 849.078 63.021 899.985L367.078 1204.04C392.531 1229.49 425.891 1242.22 459.252 1242.22C492.613 1242.22 525.973 1229.49 551.426 1204.04L1212.95 542.512C1263.86 491.608 1263.86 409.07 1212.95 358.164L1212.95 358.163Z" fill="url(#paint14_linear_1_78)"/>
<path d="M1215.7 349.868C1164.8 298.963 1082.26 298.963 1031.35 349.868L462.001 919.223L250.119 707.34C199.213 656.436 116.677 656.434 65.771 707.342C14.8651 758.247 14.8651 840.783 65.771 891.69L369.828 1195.75C395.281 1221.2 428.641 1233.93 462.002 1233.93C495.363 1233.93 528.723 1221.2 554.176 1195.75L1215.7 534.217C1266.61 483.313 1266.61 400.775 1215.7 349.869L1215.7 349.868Z" fill="url(#paint15_linear_1_78)"/>
<path d="M1218.45 341.572C1167.54 290.667 1085.01 290.667 1034.1 341.572L464.75 910.927L252.868 699.044C201.962 648.14 119.426 648.138 68.5201 699.046C17.6141 749.951 17.6141 832.488 68.5201 883.394L372.577 1187.45C398.03 1212.9 431.39 1225.63 464.751 1225.63C498.112 1225.63 531.472 1212.9 556.925 1187.45L1218.45 525.921C1269.36 475.017 1269.36 392.48 1218.45 341.573L1218.45 341.572Z" fill="url(#paint16_linear_1_78)"/>
<path d="M1221.2 333.277C1170.29 282.372 1087.76 282.372 1036.85 333.277L467.499 902.632L255.617 690.749C204.711 639.845 122.175 639.843 71.2691 690.751C20.3631 741.656 20.3631 824.192 71.2691 875.099L375.326 1179.15C400.779 1204.61 434.139 1217.33 467.5 1217.33C500.861 1217.33 534.221 1204.61 559.674 1179.15L1221.2 517.626C1272.11 466.722 1272.11 384.184 1221.2 333.278L1221.2 333.277Z" fill="url(#paint17_linear_1_78)"/>
<path d="M1223.95 324.982C1173.04 274.077 1090.51 274.077 1039.6 324.982L470.248 894.337L258.366 682.454C207.46 631.55 124.925 631.548 74.0181 682.456C23.1121 733.361 23.1121 815.897 74.0181 866.804L378.075 1170.86C403.528 1196.31 436.888 1209.04 470.249 1209.04C503.61 1209.04 536.97 1196.31 562.423 1170.86L1223.95 509.331C1274.86 458.427 1274.86 375.89 1223.95 324.983L1223.95 324.982Z" fill="url(#paint18_linear_1_78)"/>
<path d="M1226.7 316.687C1175.79 265.782 1093.26 265.782 1042.35 316.687L472.998 886.042L261.116 674.159C210.21 623.255 127.675 623.253 76.7681 674.161C25.8621 725.066 25.8621 807.602 76.7681 858.509L380.825 1162.57C406.278 1188.02 439.638 1200.74 472.999 1200.74C506.36 1200.74 539.72 1188.02 565.173 1162.57L1226.7 501.036C1277.61 450.132 1277.61 367.595 1226.7 316.688L1226.7 316.687Z" fill="url(#paint19_linear_1_78)"/>
<path d="M1229.45 308.391C1178.54 257.486 1096.01 257.486 1045.1 308.391L475.747 877.746L263.865 665.863C212.958 614.958 130.423 614.957 79.5171 665.864C28.6111 716.769 28.6111 799.305 79.5171 850.212L383.574 1154.27C409.027 1179.72 442.387 1192.45 475.748 1192.45C509.109 1192.45 542.469 1179.72 567.922 1154.27L1229.45 492.739C1280.36 441.835 1280.36 359.297 1229.45 308.391Z" fill="url(#paint20_linear_1_78)"/>
<path d="M1232.2 300.096C1181.29 249.191 1098.76 249.191 1047.85 300.096L478.496 869.451L266.614 657.568C215.708 606.664 133.173 606.662 82.2659 657.569C31.3599 708.474 31.3599 791.011 82.2659 841.917L386.323 1145.97C411.776 1171.43 445.136 1184.15 478.497 1184.15C511.858 1184.15 545.218 1171.43 570.671 1145.97L1232.2 484.444C1283.1 433.54 1283.1 351.003 1232.2 300.096Z" fill="url(#paint21_linear_1_78)"/>
<path d="M1234.95 291.801C1184.04 240.896 1101.5 240.896 1050.6 291.801L481.246 861.156L269.364 649.273C218.457 598.368 135.923 598.367 85.0159 649.274C34.1099 700.179 34.1099 782.715 85.0159 833.622L389.073 1137.68C414.526 1163.13 447.886 1175.86 481.247 1175.86C514.608 1175.86 547.968 1163.13 573.421 1137.68L1234.95 476.149C1285.86 425.245 1285.86 342.708 1234.95 291.801H1234.95Z" fill="url(#paint22_linear_1_78)"/>
<path d="M1237.7 283.506C1186.79 232.601 1104.25 232.601 1053.35 283.506L483.996 852.861L272.114 640.978C221.207 590.073 138.673 590.072 87.7659 640.979C36.8599 691.884 36.8599 774.42 87.7659 825.327L391.823 1129.38C417.276 1154.83 450.636 1167.56 483.997 1167.56C517.358 1167.56 550.718 1154.83 576.171 1129.38L1237.7 467.854C1288.61 416.95 1288.61 334.412 1237.7 283.506H1237.7Z" fill="url(#paint23_linear_1_78)"/>
<path d="M1240.45 275.21C1189.54 224.305 1107 224.305 1056.1 275.21L486.745 844.565L274.863 632.682C223.956 581.777 141.422 581.776 90.5149 632.683C39.6089 683.588 39.6089 766.125 90.5149 817.031L394.572 1121.09C420.025 1146.54 453.385 1159.27 486.746 1159.27C520.107 1159.27 553.467 1146.54 578.92 1121.09L1240.45 459.558C1291.35 408.654 1291.35 326.117 1240.45 275.21H1240.45Z" fill="url(#paint24_linear_1_78)"/>
<path d="M1243.19 266.915C1192.29 216.01 1109.75 216.01 1058.85 266.915L489.494 836.27L277.611 624.387C226.704 573.482 144.169 573.481 93.263 624.388C42.357 675.293 42.357 757.829 93.263 808.736L397.32 1112.79C422.773 1138.24 456.133 1150.97 489.494 1150.97C522.855 1150.97 556.215 1138.25 581.668 1112.79L1243.19 451.263C1294.1 400.359 1294.1 317.822 1243.19 266.915Z" fill="url(#paint25_linear_1_78)"/>
<path d="M1245.94 258.62C1195.04 207.715 1112.5 207.715 1061.6 258.62L492.243 827.975L280.361 616.092C229.454 565.187 146.919 565.186 96.013 616.093C45.107 666.998 45.107 749.535 96.013 800.441L400.07 1104.5C425.523 1129.95 458.883 1142.67 492.244 1142.67C525.605 1142.67 558.965 1129.95 584.418 1104.5L1245.95 442.968C1296.85 392.064 1296.85 309.527 1245.95 258.62H1245.94Z" fill="url(#paint26_linear_1_78)"/>
<path d="M1248.69 250.324C1197.79 199.419 1115.25 199.419 1064.35 250.324L494.993 819.679L283.111 607.797C232.204 556.892 149.669 556.891 98.763 607.798C47.857 658.703 47.857 741.239 98.763 792.146L402.82 1096.2C428.273 1121.65 461.633 1134.38 494.994 1134.38C528.355 1134.38 561.715 1121.66 587.168 1096.2L1248.7 434.673C1299.6 383.769 1299.6 301.232 1248.7 250.325L1248.69 250.324Z" fill="url(#paint27_linear_1_78)"/>
<path d="M1251.44 242.029C1200.53 191.124 1118 191.124 1067.1 242.029L497.742 811.384L285.859 599.501C234.952 548.596 152.418 548.595 101.511 599.502C50.605 650.407 50.605 732.944 101.511 783.85L405.568 1087.91C431.021 1113.36 464.381 1126.08 497.742 1126.08C531.103 1126.08 564.463 1113.36 589.916 1087.91L1251.44 426.377C1302.35 375.473 1302.35 292.935 1251.44 242.029Z" fill="url(#paint28_linear_1_78)"/>
<path d="M1254.19 233.734C1203.29 182.829 1120.75 182.829 1069.84 233.734L500.491 803.089L288.608 591.207C237.701 540.302 155.167 540.301 104.26 591.208C53.3541 642.113 53.3541 724.65 104.26 775.556L408.317 1079.61C433.77 1105.06 467.13 1117.79 500.491 1117.79C533.852 1117.79 567.212 1105.06 592.665 1079.61L1254.19 418.083C1305.1 367.179 1305.1 284.641 1254.19 233.734Z" fill="url(#paint29_linear_1_78)"/>
<path d="M1256.94 225.439C1206.04 174.534 1123.5 174.534 1072.59 225.439L503.241 794.794L291.358 582.912C240.451 532.007 157.917 532.006 107.01 582.913C56.1041 633.818 56.1041 716.354 107.01 767.261L411.067 1071.32C436.52 1096.77 469.88 1109.5 503.241 1109.5C536.602 1109.5 569.962 1096.77 595.415 1071.32L1256.94 409.788C1307.85 358.884 1307.85 276.346 1256.94 225.439Z" fill="url(#paint30_linear_1_78)"/>
</g>
<path d="M1256.94 225.439C1206.04 174.534 1123.5 174.534 1072.59 225.439L503.241 794.794L291.358 582.912C240.451 532.007 157.917 532.006 107.01 582.913C56.1041 633.818 56.1041 716.354 107.01 767.261L411.067 1071.32C436.52 1096.77 469.88 1109.5 503.241 1109.5C536.602 1109.5 569.962 1096.77 595.415 1071.32L1256.94 409.788C1307.85 358.884 1307.85 276.346 1256.94 225.439Z" fill="url(#paint31_linear_1_78)"/>
<path d="M1256.94 222.31C1206.04 171.405 1123.5 171.405 1072.59 222.31L503.241 791.665L291.358 579.783C240.451 528.878 157.917 528.877 107.01 579.784C56.1041 630.689 56.1041 713.226 107.01 764.132L411.067 1068.19C436.52 1093.64 469.88 1106.37 503.241 1106.37C536.602 1106.37 569.962 1093.64 595.415 1068.19L1256.94 406.659C1307.85 355.755 1307.85 273.216 1256.94 222.31Z" fill="url(#paint32_linear_1_78)"/>
<path d="M1256.94 219.182C1206.04 168.277 1123.5 168.277 1072.59 219.182L503.241 788.537L291.358 576.655C240.451 525.75 157.917 525.749 107.01 576.656C56.1041 627.561 56.1041 710.097 107.01 761.004L411.067 1065.06C436.52 1090.51 469.88 1103.24 503.241 1103.24C536.602 1103.24 569.962 1090.51 595.415 1065.06L1256.94 403.531C1307.85 352.627 1307.85 270.088 1256.94 219.182Z" fill="url(#paint33_linear_1_78)"/>
<path d="M1256.94 216.053C1206.04 165.148 1123.5 165.148 1072.59 216.053L503.241 785.408L291.358 573.526C240.451 522.621 157.917 522.62 107.01 573.527C56.1041 624.432 56.1041 706.969 107.01 757.875L411.067 1061.93C436.52 1087.38 469.88 1100.11 503.241 1100.11C536.602 1100.11 569.962 1087.38 595.415 1061.93L1256.94 400.402C1307.85 349.498 1307.85 266.96 1256.94 216.054V216.053Z" fill="url(#paint34_linear_1_78)"/>
<path d="M1256.94 212.925C1206.04 162.02 1123.5 162.02 1072.59 212.925L503.241 782.28L291.358 570.398C240.451 519.493 157.917 519.492 107.01 570.399C56.1041 621.304 56.1041 703.841 107.01 754.747L411.067 1058.8C436.52 1084.26 469.88 1096.98 503.241 1096.98C536.602 1096.98 569.962 1084.26 595.415 1058.8L1256.94 397.274C1307.85 346.37 1307.85 263.833 1256.94 212.926V212.925Z" fill="url(#paint35_linear_1_78)"/>
<path d="M1256.94 209.796C1206.04 158.891 1123.5 158.891 1072.59 209.796L503.241 779.151L291.358 567.269C240.451 516.364 157.917 516.363 107.01 567.27C56.1041 618.175 56.1041 700.712 107.01 751.618L411.067 1055.67C436.52 1081.13 469.88 1093.85 503.241 1093.85C536.602 1093.85 569.962 1081.13 595.415 1055.67L1256.94 394.145C1307.85 343.241 1307.85 260.703 1256.94 209.796Z" fill="url(#paint36_linear_1_78)"/>
<path d="M1256.94 206.668C1206.04 155.763 1123.5 155.763 1072.59 206.668L503.241 776.023L291.358 564.141C240.451 513.236 157.917 513.235 107.01 564.142C56.1041 615.047 56.1041 697.583 107.01 748.49L411.067 1052.55C436.52 1078 469.88 1090.72 503.241 1090.72C536.602 1090.72 569.962 1078 595.415 1052.55L1256.94 391.017C1307.85 340.113 1307.85 257.574 1256.94 206.668Z" fill="url(#paint37_linear_1_78)"/>
<path d="M1256.94 203.539C1206.04 152.634 1123.5 152.634 1072.59 203.539L503.241 772.894L291.358 561.012C240.451 510.107 157.917 510.106 107.01 561.013C56.1041 611.918 56.1041 694.454 107.01 745.361L411.067 1049.42C436.52 1074.87 469.88 1087.6 503.241 1087.6C536.602 1087.6 569.962 1074.87 595.415 1049.42L1256.94 387.888C1307.85 336.984 1307.85 254.446 1256.94 203.539Z" fill="url(#paint38_linear_1_78)"/>
<path d="M1256.94 200.411C1206.04 149.506 1123.5 149.506 1072.59 200.411L503.241 769.766L291.358 557.884C240.451 506.979 157.917 506.978 107.01 557.885C56.1041 608.79 56.1041 691.326 107.01 742.233L411.067 1046.29C436.52 1071.74 469.88 1084.47 503.241 1084.47C536.602 1084.47 569.962 1071.74 595.415 1046.29L1256.94 384.76C1307.85 333.856 1307.85 251.318 1256.94 200.411Z" fill="url(#paint39_linear_1_78)"/>
<path d="M1256.94 197.282C1206.04 146.377 1123.5 146.377 1072.59 197.282L503.241 766.637L291.358 554.755C240.451 503.85 157.917 503.849 107.01 554.756C56.1041 605.661 56.1041 688.197 107.01 739.104L411.067 1043.16C436.52 1068.61 469.88 1081.34 503.241 1081.34C536.602 1081.34 569.962 1068.61 595.415 1043.16L1256.94 381.631C1307.85 330.727 1307.85 248.189 1256.94 197.283V197.282Z" fill="url(#paint40_linear_1_78)"/>
<path d="M1256.94 194.154C1206.04 143.249 1123.5 143.249 1072.59 194.154L503.241 763.509L291.358 551.626C240.451 500.721 157.917 500.72 107.01 551.627C56.1041 602.532 56.1041 685.069 107.01 735.975L411.067 1040.03C436.52 1065.48 469.88 1078.21 503.241 1078.21C536.602 1078.21 569.962 1065.48 595.415 1040.03L1256.94 378.502C1307.85 327.598 1307.85 245.06 1256.94 194.154Z" fill="url(#paint41_linear_1_78)"/>
<path d="M1256.94 191.025C1206.04 140.12 1123.5 140.12 1072.59 191.025L503.241 760.38L291.358 548.497C240.451 497.592 157.917 497.591 107.01 548.498C56.1041 599.403 56.1041 681.94 107.01 732.846L411.067 1036.9C436.52 1062.35 469.88 1075.08 503.241 1075.08C536.602 1075.08 569.962 1062.35 595.415 1036.9L1256.94 375.373C1307.85 324.469 1307.85 241.931 1256.94 191.025Z" fill="url(#paint42_linear_1_78)"/>
<path d="M1256.94 187.897C1206.04 136.992 1123.5 136.992 1072.59 187.897L503.241 757.252L291.358 545.369C240.451 494.464 157.917 494.463 107.01 545.37C56.1041 596.275 56.1041 678.812 107.01 729.718L411.067 1033.77C436.52 1059.23 469.88 1071.95 503.241 1071.95C536.602 1071.95 569.962 1059.23 595.415 1033.77L1256.94 372.245C1307.85 321.341 1307.85 238.804 1256.94 187.897Z" fill="url(#paint43_linear_1_78)"/>
<path d="M1256.94 184.768C1206.04 133.863 1123.5 133.863 1072.59 184.768L503.241 754.123L291.358 542.24C240.451 491.335 157.917 491.334 107.01 542.241C56.1041 593.146 56.1041 675.683 107.01 726.589L411.067 1030.65C436.52 1056.1 469.88 1068.82 503.241 1068.82C536.602 1068.82 569.962 1056.1 595.415 1030.65L1256.94 369.116C1307.85 318.212 1307.85 235.675 1256.94 184.768Z" fill="url(#paint44_linear_1_78)"/>
<path d="M1256.94 181.64C1206.04 130.735 1123.5 130.735 1072.59 181.64L503.241 750.995L291.358 539.112C240.451 488.207 157.917 488.206 107.01 539.113C56.1041 590.018 56.1041 672.555 107.01 723.461L411.067 1027.52C436.52 1052.97 469.88 1065.7 503.241 1065.7C536.602 1065.7 569.962 1052.97 595.415 1027.52L1256.94 365.988C1307.85 315.084 1307.85 232.547 1256.94 181.64Z" fill="url(#paint45_linear_1_78)"/>
<path d="M1256.94 178.511C1206.04 127.606 1123.5 127.606 1072.59 178.511L503.241 747.866L291.358 535.983C240.451 485.078 157.917 485.077 107.01 535.984C56.1041 586.889 56.1041 669.426 107.01 720.332L411.067 1024.39C436.52 1049.84 469.88 1062.57 503.241 1062.57C536.602 1062.57 569.962 1049.84 595.415 1024.39L1256.94 362.859C1307.85 311.955 1307.85 229.417 1256.94 178.511Z" fill="url(#paint46_linear_1_78)"/>
<path d="M1256.94 175.383C1206.04 124.478 1123.5 124.478 1072.59 175.383L503.241 744.738L291.358 532.856C240.451 481.951 157.917 481.949 107.01 532.857C56.1041 583.762 56.1041 666.299 107.01 717.205L411.067 1021.26C436.52 1046.71 469.88 1059.44 503.241 1059.44C536.602 1059.44 569.962 1046.71 595.415 1021.26L1256.94 359.732C1307.85 308.828 1307.85 226.29 1256.94 175.383Z" fill="url(#paint47_linear_1_78)"/>
<path d="M1256.94 172.254C1206.04 121.349 1123.5 121.349 1072.59 172.254L503.241 741.609L291.358 529.726C240.451 478.821 157.917 478.819 107.01 529.727C56.1041 580.632 56.1041 663.169 107.01 714.075L411.067 1018.13C436.52 1043.58 469.88 1056.31 503.241 1056.31C536.602 1056.31 569.962 1043.58 595.415 1018.13L1256.94 356.602C1307.85 305.697 1307.85 223.16 1256.94 172.254Z" fill="url(#paint48_linear_1_78)"/>
<path d="M1256.94 169.126C1206.04 118.221 1123.5 118.221 1072.59 169.126L503.241 738.481L291.358 526.598C240.451 475.693 157.917 475.691 107.01 526.599C56.1041 577.504 56.1041 660.041 107.01 710.947L411.067 1015C436.52 1040.46 469.88 1053.18 503.241 1053.18C536.602 1053.18 569.962 1040.46 595.415 1015L1256.94 353.474C1307.85 302.569 1307.85 220.032 1256.94 169.126Z" fill="url(#paint49_linear_1_78)"/>
<path d="M1256.94 165.997C1206.04 115.092 1123.5 115.092 1072.59 165.997L503.241 735.352L291.358 523.469C240.451 472.564 157.917 472.562 107.01 523.47C56.1041 574.375 56.1041 656.912 107.01 707.818L411.067 1011.87C436.52 1037.33 469.88 1050.05 503.241 1050.05C536.602 1050.05 569.962 1037.33 595.415 1011.87L1256.94 350.345C1307.85 299.44 1307.85 216.903 1256.94 165.997Z" fill="url(#paint50_linear_1_78)"/>
<path d="M1256.94 162.869C1206.04 111.964 1123.5 111.964 1072.59 162.869L503.241 732.224L291.358 520.341C240.451 469.436 157.917 469.434 107.01 520.342C56.1041 571.247 56.1041 653.784 107.01 704.69L411.067 1008.75C436.52 1034.2 469.88 1046.93 503.241 1046.93C536.602 1046.93 569.962 1034.2 595.415 1008.75L1256.94 347.217C1307.85 296.313 1307.85 213.776 1256.94 162.869Z" fill="url(#paint51_linear_1_78)"/>
<path d="M1256.94 159.74C1206.04 108.835 1123.5 108.835 1072.59 159.74L503.241 729.095L291.358 517.212C240.451 466.307 157.917 466.305 107.01 517.213C56.1041 568.118 56.1041 650.655 107.01 701.561L411.067 1005.62C436.52 1031.07 469.88 1043.8 503.241 1043.8C536.602 1043.8 569.962 1031.07 595.415 1005.62L1256.94 344.088C1307.85 293.184 1307.85 210.647 1256.94 159.74Z" fill="url(#paint52_linear_1_78)"/>
<path d="M1256.94 156.612C1206.04 105.707 1123.5 105.707 1072.59 156.612L503.241 725.967L291.358 514.084C240.451 463.179 157.917 463.177 107.01 514.085C56.1041 564.99 56.1041 647.527 107.01 698.433L411.067 1002.49C436.52 1027.94 469.88 1040.67 503.241 1040.67C536.602 1040.67 569.962 1027.94 595.415 1002.49L1256.94 340.96C1307.85 290.055 1307.85 207.519 1256.94 156.612Z" fill="url(#paint53_linear_1_78)"/>
<path d="M1256.94 153.484C1206.04 102.579 1123.5 102.579 1072.59 153.484L503.241 722.839L291.358 510.957C240.451 460.052 157.917 460.05 107.01 510.958C56.1041 561.863 56.1041 644.4 107.01 695.306L411.067 999.362C436.52 1024.81 469.88 1037.54 503.241 1037.54C536.602 1037.54 569.962 1024.82 595.415 999.362L1256.94 337.833C1307.85 286.928 1307.85 204.391 1256.94 153.484Z" fill="url(#paint54_linear_1_78)"/>
<path d="M1256.94 150.355C1206.04 99.45 1123.5 99.45 1072.59 150.355L503.241 719.71L291.358 507.828C240.451 456.923 157.917 456.921 107.01 507.829C56.1041 558.734 56.1041 641.271 107.01 692.177L411.067 996.233C436.52 1021.69 469.88 1034.41 503.241 1034.41C536.602 1034.41 569.962 1021.69 595.415 996.233L1256.94 334.704C1307.85 283.799 1307.85 201.262 1256.94 150.355Z" fill="url(#paint55_linear_1_78)"/>
<path d="M1256.94 147.226C1206.04 96.3211 1123.5 96.3211 1072.59 147.226L503.241 716.581L291.358 504.698C240.451 453.793 157.917 453.791 107.01 504.699C56.1041 555.604 56.1041 638.141 107.01 689.047L411.067 993.103C436.52 1018.56 469.88 1031.28 503.241 1031.28C536.602 1031.28 569.962 1018.56 595.415 993.103L1256.94 331.574C1307.85 280.669 1307.85 198.132 1256.94 147.226Z" fill="url(#paint56_linear_1_78)"/>
<path d="M1256.94 144.098C1206.04 93.1932 1123.5 93.1932 1072.59 144.098L503.241 713.453L291.358 501.571C240.451 450.666 157.917 450.664 107.01 501.572C56.1041 552.477 56.1041 635.014 107.01 685.92L411.067 989.976C436.52 1015.43 469.88 1028.15 503.241 1028.15C536.602 1028.15 569.962 1015.43 595.415 989.976L1256.94 328.447C1307.85 277.542 1307.85 195.005 1256.94 144.099V144.098Z" fill="url(#paint57_linear_1_78)"/>
<path d="M1256.94 140.97C1206.04 90.065 1123.5 90.065 1072.59 140.97L503.241 710.325L291.358 498.442C240.451 447.537 157.917 447.535 107.01 498.443C56.1041 549.348 56.1041 631.885 107.01 682.791L411.067 986.847C436.52 1012.3 469.88 1025.03 503.241 1025.03C536.602 1025.03 569.962 1012.3 595.415 986.847L1256.94 325.318C1307.85 274.413 1307.85 191.877 1256.94 140.97Z" fill="url(#paint58_linear_1_78)"/>
<path d="M1256.94 137.841C1206.04 86.9361 1123.5 86.9361 1072.59 137.841L503.241 707.196L291.358 495.314C240.451 444.409 157.917 444.407 107.01 495.315C56.1041 546.22 56.1041 628.757 107.01 679.663L411.067 983.719C436.52 1009.17 469.88 1021.9 503.241 1021.9C536.602 1021.9 569.962 1009.17 595.415 983.719L1256.94 322.19C1307.85 271.285 1307.85 188.749 1256.94 137.842V137.841Z" fill="url(#paint59_linear_1_78)"/>
<path d="M1256.94 134.713C1206.04 83.8082 1123.5 83.8082 1072.59 134.713L503.241 704.068L291.358 492.185C240.451 441.28 157.917 441.278 107.01 492.186C56.1041 543.091 56.1041 625.628 107.01 676.534L411.067 980.59C436.52 1006.04 469.88 1018.77 503.241 1018.77C536.602 1018.77 569.962 1006.04 595.415 980.59L1256.94 319.061C1307.85 268.156 1307.85 185.62 1256.94 134.713Z" fill="url(#paint60_linear_1_78)"/>
<path d="M1256.94 131.584C1206.04 80.679 1123.5 80.679 1072.59 131.584L503.241 700.939L291.358 489.056C240.451 438.151 157.917 438.149 107.01 489.057C56.1041 539.962 56.1041 622.499 107.01 673.405L411.067 977.461C436.52 1002.91 469.88 1015.64 503.241 1015.64C536.602 1015.64 569.962 1002.91 595.415 977.461L1256.94 315.932C1307.85 265.027 1307.85 182.491 1256.94 131.584Z" fill="url(#paint61_linear_1_78)"/>
<path d="M1256.94 128.456C1206.04 77.5511 1123.5 77.5511 1072.59 128.456L503.241 697.811L291.358 485.929C240.451 435.024 157.917 435.022 107.01 485.93C56.1041 536.835 56.1041 619.372 107.01 670.278L411.067 974.334C436.52 999.786 469.88 1012.51 503.241 1012.51C536.602 1012.51 569.962 999.787 595.415 974.334L1256.94 312.805C1307.85 261.9 1307.85 179.363 1256.94 128.457V128.456Z" fill="url(#paint62_linear_1_78)"/>
<path d="M1256.94 128.456C1206.04 77.5511 1123.5 77.5511 1072.59 128.456L503.241 697.811L291.358 485.929C240.451 435.024 157.917 435.022 107.01 485.93C56.1041 536.835 56.1041 619.372 107.01 670.278L411.067 974.334C436.52 999.786 469.88 1012.51 503.241 1012.51C536.602 1012.51 569.962 999.787 595.415 974.334L1256.94 312.805C1307.85 261.9 1307.85 179.363 1256.94 128.457V128.456Z" fill="url(#paint63_linear_1_78)"/>
<path d="M503.24 1004C470.696 1004 440.099 991.323 417.087 968.31L113.031 664.254C90.019 641.243 77.345 610.646 77.345 578.101C77.345 545.556 90.019 514.961 113.031 491.949C136.043 468.936 166.639 456.263 199.181 456.263C231.725 456.262 262.322 468.934 285.336 491.947L503.24 709.851L1078.61 134.475C1101.63 111.464 1132.22 98.791 1164.77 98.791C1197.31 98.791 1227.91 111.464 1250.92 134.475C1273.93 157.487 1286.6 188.082 1286.6 220.628C1286.6 253.174 1273.93 283.77 1250.92 306.78L589.392 968.311C566.38 991.322 535.783 1004 503.24 1004ZM199.182 462.877C168.406 462.877 139.47 474.862 117.707 496.626C95.944 518.389 83.959 547.325 83.959 578.102C83.959 608.879 95.944 637.816 117.707 659.58L421.763 963.635C443.527 985.399 472.463 997.384 503.241 997.384C534.019 997.384 562.954 985.399 584.718 963.637L1246.25 302.106C1268.01 280.346 1279.99 251.41 1279.99 220.63C1279.99 189.85 1268.01 160.914 1246.25 139.153C1224.48 117.391 1195.55 105.406 1164.77 105.406C1133.99 105.406 1105.06 117.392 1083.29 139.153L503.242 719.204L280.662 496.624C258.897 474.861 229.96 462.876 199.182 462.877Z" fill="url(#paint64_linear_1_78)" style="mix-blend-mode:screen"/>
<path d="M1248.58 304.444C1271.73 281.297 1283.3 250.983 1283.3 220.63C1283.3 190.277 1271.73 159.962 1248.58 136.814C1225.44 113.667 1195.12 102.097 1164.77 102.098C1134.41 102.098 1104.1 113.668 1080.95 136.814L821.986 395.781L631.859 921.168C780.573 772.453 1248.58 304.443 1248.58 304.443L1248.58 304.444Z" fill="url(#paint65_linear_1_78)" style="mix-blend-mode:screen"/>
</g>
<defs>
<linearGradient id="paint0_linear_1_78" x1="462.475" y1="705.618" x2="985.597" y2="1052.41" gradientUnits="userSpaceOnUse">
<stop stop-color="#FAFEFC"/>
<stop offset="0.433" stop-color="#F9FDFC"/>
<stop offset="1" stop-color="#F8FDFB"/>
</linearGradient>
<linearGradient id="paint1_linear_1_78" x1="465.224" y1="697.322" x2="988.347" y2="1044.11" gradientUnits="userSpaceOnUse">
<stop stop-color="#F5FDF9"/>
<stop offset="0.433" stop-color="#F4FCF8"/>
<stop offset="1" stop-color="#F1FBF6"/>
</linearGradient>
<linearGradient id="paint2_linear_1_78" x1="467.973" y1="689.027" x2="991.096" y2="1035.82" gradientUnits="userSpaceOnUse">
<stop stop-color="#EFFCF7"/>
<stop offset="0.433" stop-color="#EEFAF5"/>
<stop offset="1" stop-color="#EAF9F2"/>
</linearGradient>
<linearGradient id="paint3_linear_1_78" x1="470.723" y1="680.732" x2="993.845" y2="1027.52" gradientUnits="userSpaceOnUse">
<stop stop-color="#EAFBF4"/>
<stop offset="0.433" stop-color="#E8F9F2"/>
<stop offset="1" stop-color="#E3F6ED"/>
</linearGradient>
<linearGradient id="paint4_linear_1_78" x1="473.472" y1="672.437" x2="996.595" y2="1019.23" gradientUnits="userSpaceOnUse">
<stop stop-color="#E5FAF1"/>
<stop offset="0.433" stop-color="#E3F7EF"/>
<stop offset="1" stop-color="#DCF4E9"/>
</linearGradient>
<linearGradient id="paint5_linear_1_78" x1="476.221" y1="664.141" x2="999.344" y2="1010.93" gradientUnits="userSpaceOnUse">
<stop stop-color="#E0F9EE"/>
<stop offset="0.433" stop-color="#DDF6EB"/>
<stop offset="1" stop-color="#D5F2E5"/>
</linearGradient>
<linearGradient id="paint6_linear_1_78" x1="478.97" y1="655.846" x2="1002.09" y2="1002.63" gradientUnits="userSpaceOnUse">
<stop stop-color="#DAF8EB"/>
<stop offset="0.433" stop-color="#D7F4E8"/>
<stop offset="1" stop-color="#CEF0E0"/>
</linearGradient>
<linearGradient id="paint7_linear_1_78" x1="481.72" y1="647.551" x2="1004.84" y2="994.339" gradientUnits="userSpaceOnUse">
<stop stop-color="#D5F7E9"/>
<stop offset="0.433" stop-color="#D2F3E5"/>
<stop offset="1" stop-color="#C7EEDC"/>
</linearGradient>
<linearGradient id="paint8_linear_1_78" x1="484.469" y1="639.255" x2="1007.59" y2="986.044" gradientUnits="userSpaceOnUse">
<stop stop-color="#D0F6E6"/>
<stop offset="0.433" stop-color="#CCF1E1"/>
<stop offset="1" stop-color="#C0ECD8"/>
</linearGradient>
<linearGradient id="paint9_linear_1_78" x1="487.218" y1="630.96" x2="1010.34" y2="977.749" gradientUnits="userSpaceOnUse">
<stop stop-color="#CBF5E3"/>
<stop offset="0.433" stop-color="#C6F0DE"/>
<stop offset="1" stop-color="#B9EAD3"/>
</linearGradient>
<linearGradient id="paint10_linear_1_78" x1="489.968" y1="622.665" x2="1013.09" y2="969.454" gradientUnits="userSpaceOnUse">
<stop stop-color="#C6F4E0"/>
<stop offset="0.433" stop-color="#C1EEDB"/>
<stop offset="1" stop-color="#B2E8CF"/>
</linearGradient>
<linearGradient id="paint11_linear_1_78" x1="492.717" y1="614.37" x2="1015.84" y2="961.158" gradientUnits="userSpaceOnUse">
<stop stop-color="#C0F3DD"/>
<stop offset="0.433" stop-color="#BBECD8"/>
<stop offset="1" stop-color="#ABE5CA"/>
</linearGradient>
<linearGradient id="paint12_linear_1_78" x1="495.466" y1="606.074" x2="1018.59" y2="952.863" gradientUnits="userSpaceOnUse">
<stop stop-color="#BBF2DB"/>
<stop offset="0.433" stop-color="#B5EBD4"/>
<stop offset="1" stop-color="#A4E3C6"/>
</linearGradient>
<linearGradient id="paint13_linear_1_78" x1="498.215" y1="597.779" x2="1021.34" y2="944.568" gradientUnits="userSpaceOnUse">
<stop stop-color="#B6F1D8"/>
<stop offset="0.433" stop-color="#B0E9D1"/>
<stop offset="1" stop-color="#9DE1C2"/>
</linearGradient>
<linearGradient id="paint14_linear_1_78" x1="500.965" y1="589.484" x2="1024.09" y2="936.272" gradientUnits="userSpaceOnUse">
<stop stop-color="#B1F0D5"/>
<stop offset="0.433" stop-color="#AAE8CE"/>
<stop offset="1" stop-color="#96DFBD"/>
</linearGradient>
<linearGradient id="paint15_linear_1_78" x1="503.714" y1="581.189" x2="1026.84" y2="927.977" gradientUnits="userSpaceOnUse">
<stop stop-color="#ABF0D2"/>
<stop offset="0.433" stop-color="#A4E6CA"/>
<stop offset="1" stop-color="#8EDDB9"/>
</linearGradient>
<linearGradient id="paint16_linear_1_78" x1="506.463" y1="572.893" x2="1029.59" y2="919.682" gradientUnits="userSpaceOnUse">
<stop stop-color="#A6EFCF"/>
<stop offset="0.433" stop-color="#9EE5C7"/>
<stop offset="1" stop-color="#87DBB4"/>
</linearGradient>
<linearGradient id="paint17_linear_1_78" x1="509.212" y1="564.598" x2="1032.34" y2="911.387" gradientUnits="userSpaceOnUse">
<stop stop-color="#A1EECC"/>
<stop offset="0.433" stop-color="#99E3C4"/>
<stop offset="1" stop-color="#80D9B0"/>
</linearGradient>
<linearGradient id="paint18_linear_1_78" x1="511.962" y1="556.303" x2="1035.09" y2="903.091" gradientUnits="userSpaceOnUse">
<stop stop-color="#9CEDCA"/>
<stop offset="0.433" stop-color="#93E2C0"/>
<stop offset="1" stop-color="#79D7AC"/>
</linearGradient>
<linearGradient id="paint19_linear_1_78" x1="514.711" y1="548.008" x2="1037.83" y2="894.796" gradientUnits="userSpaceOnUse">
<stop stop-color="#96ECC7"/>
<stop offset="0.433" stop-color="#8DE0BD"/>
<stop offset="1" stop-color="#72D4A7"/>
</linearGradient>
<linearGradient id="paint20_linear_1_78" x1="517.46" y1="539.712" x2="1040.58" y2="886.501" gradientUnits="userSpaceOnUse">
<stop stop-color="#91EBC4"/>
<stop offset="0.433" stop-color="#88DEBA"/>
<stop offset="1" stop-color="#6BD2A3"/>
</linearGradient>
<linearGradient id="paint21_linear_1_78" x1="520.21" y1="531.417" x2="1043.33" y2="878.206" gradientUnits="userSpaceOnUse">
<stop stop-color="#8CEAC1"/>
<stop offset="0.433" stop-color="#82DDB7"/>
<stop offset="1" stop-color="#64D09E"/>
</linearGradient>
<linearGradient id="paint22_linear_1_78" x1="522.959" y1="523.122" x2="1046.08" y2="869.91" gradientUnits="userSpaceOnUse">
<stop stop-color="#87E9BE"/>
<stop offset="0.433" stop-color="#7CDBB3"/>
<stop offset="1" stop-color="#5DCE9A"/>
</linearGradient>
<linearGradient id="paint23_linear_1_78" x1="525.708" y1="514.827" x2="1048.83" y2="861.615" gradientUnits="userSpaceOnUse">
<stop stop-color="#82E8BC"/>
<stop offset="0.433" stop-color="#77DAB0"/>
<stop offset="1" stop-color="#56CC96"/>
</linearGradient>
<linearGradient id="paint24_linear_1_78" x1="528.457" y1="506.531" x2="1051.58" y2="853.32" gradientUnits="userSpaceOnUse">
<stop stop-color="#7CE7B9"/>
<stop offset="0.433" stop-color="#71D8AD"/>
<stop offset="1" stop-color="#4FCA91"/>
</linearGradient>
<linearGradient id="paint25_linear_1_78" x1="531.207" y1="498.236" x2="1054.33" y2="845.025" gradientUnits="userSpaceOnUse">
<stop stop-color="#77E6B6"/>
<stop offset="0.433" stop-color="#6BD7A9"/>
<stop offset="1" stop-color="#48C88D"/>
</linearGradient>
<linearGradient id="paint26_linear_1_78" x1="533.956" y1="489.941" x2="1057.08" y2="836.729" gradientUnits="userSpaceOnUse">
<stop stop-color="#72E5B3"/>
<stop offset="0.433" stop-color="#66D5A6"/>
<stop offset="1" stop-color="#41C689"/>
</linearGradient>
<linearGradient id="paint27_linear_1_78" x1="536.705" y1="481.645" x2="1059.83" y2="828.434" gradientUnits="userSpaceOnUse">
<stop stop-color="#6DE4B0"/>
<stop offset="0.433" stop-color="#60D4A3"/>
<stop offset="1" stop-color="#3AC384"/>
</linearGradient>
<linearGradient id="paint28_linear_1_78" x1="539.455" y1="473.35" x2="1062.58" y2="820.139" gradientUnits="userSpaceOnUse">
<stop stop-color="#67E3AE"/>
<stop offset="0.433" stop-color="#5AD2A0"/>
<stop offset="1" stop-color="#33C180"/>
</linearGradient>
<linearGradient id="paint29_linear_1_78" x1="542.204" y1="465.055" x2="1065.33" y2="811.844" gradientUnits="userSpaceOnUse">
<stop stop-color="#62E2AB"/>
<stop offset="0.433" stop-color="#55D19C"/>
<stop offset="1" stop-color="#2CBF7B"/>
</linearGradient>
<linearGradient id="paint30_linear_1_78" x1="544.953" y1="456.76" x2="1068.08" y2="803.548" gradientUnits="userSpaceOnUse">
<stop stop-color="#5DE1A8"/>
<stop offset="0.433" stop-color="#4FCF99"/>
<stop offset="1" stop-color="#25BD77"/>
</linearGradient>
<linearGradient id="paint31_linear_1_78" x1="544.953" y1="456.76" x2="1068.08" y2="803.548" gradientUnits="userSpaceOnUse">
<stop stop-color="#04704E"/>
<stop offset="0.757" stop-color="#31C466"/>
<stop offset="1" stop-color="#40C587"/>
</linearGradient>
<linearGradient id="paint32_linear_1_78" x1="549.391" y1="459.985" x2="1078.06" y2="804.114" gradientUnits="userSpaceOnUse">
<stop stop-color="#04704E"/>
<stop offset="0.757" stop-color="#31C466"/>
<stop offset="1" stop-color="#40C586"/>
</linearGradient>
<linearGradient id="paint33_linear_1_78" x1="554.038" y1="463.203" x2="1088.2" y2="804.57" gradientUnits="userSpaceOnUse">
<stop stop-color="#04704E"/>
<stop offset="0.757" stop-color="#31C366"/>
<stop offset="1" stop-color="#3FC585"/>
</linearGradient>
<linearGradient id="paint34_linear_1_78" x1="558.894" y1="466.405" x2="1098.49" y2="804.912" gradientUnits="userSpaceOnUse">
<stop stop-color="#04704E"/>
<stop offset="0.095" stop-color="#097A51"/>
<stop offset="0.757" stop-color="#31C366"/>
<stop offset="1" stop-color="#3FC584"/>
</linearGradient>
<linearGradient id="paint35_linear_1_78" x1="563.958" y1="469.591" x2="1108.92" y2="805.136" gradientUnits="userSpaceOnUse">
<stop stop-color="#04704E"/>
<stop offset="0.254" stop-color="#138C56"/>
<stop offset="0.757" stop-color="#30C366"/>
<stop offset="1" stop-color="#3EC583"/>
</linearGradient>
<linearGradient id="paint36_linear_1_78" x1="569.231" y1="472.752" x2="1119.5" y2="805.239" gradientUnits="userSpaceOnUse">
<stop stop-color="#04704E"/>
<stop offset="0.343" stop-color="#189659"/>
<stop offset="0.757" stop-color="#30C266"/>
<stop offset="1" stop-color="#3EC582"/>
</linearGradient>
<linearGradient id="paint37_linear_1_78" x1="574.713" y1="475.885" x2="1130.22" y2="805.218" gradientUnits="userSpaceOnUse">
<stop stop-color="#04704E"/>
<stop offset="0.404" stop-color="#1C9D5A"/>
<stop offset="0.757" stop-color="#30C265"/>
<stop offset="1" stop-color="#3DC581"/>
</linearGradient>
<linearGradient id="paint38_linear_1_78" x1="580.401" y1="478.985" x2="1141.08" y2="805.07" gradientUnits="userSpaceOnUse">
<stop stop-color="#04704E"/>
<stop offset="0.448" stop-color="#1FA35C"/>
<stop offset="0.757" stop-color="#30C265"/>
<stop offset="1" stop-color="#3DC580"/>
</linearGradient>
<linearGradient id="paint39_linear_1_78" x1="586.296" y1="482.049" x2="1152.08" y2="804.79" gradientUnits="userSpaceOnUse">
<stop stop-color="#04704E"/>
<stop offset="0.477" stop-color="#21A65D"/>
<stop offset="0.757" stop-color="#30C165"/>
<stop offset="1" stop-color="#3CC57E"/>
</linearGradient>
<linearGradient id="paint40_linear_1_78" x1="592.398" y1="485.07" x2="1163.22" y2="804.376" gradientUnits="userSpaceOnUse">
<stop stop-color="#04704E"/>
<stop offset="0.503" stop-color="#23A95E"/>
<stop offset="0.757" stop-color="#30C165"/>
<stop offset="1" stop-color="#3CC57D"/>
</linearGradient>
<linearGradient id="paint41_linear_1_78" x1="598.704" y1="488.045" x2="1174.49" y2="803.825" gradientUnits="userSpaceOnUse">
<stop stop-color="#04704E"/>
<stop offset="0.037" stop-color="#06744F"/>
<stop offset="0.522" stop-color="#23AB5E"/>
<stop offset="0.757" stop-color="#2FC165"/>
<stop offset="1" stop-color="#3BC57C"/>
</linearGradient>
<linearGradient id="paint42_linear_1_78" x1="605.215" y1="490.969" x2="1185.89" y2="803.133" gradientUnits="userSpaceOnUse">
<stop stop-color="#04704E"/>
<stop offset="0.086" stop-color="#097A50"/>
<stop offset="0.536" stop-color="#24AC5F"/>
<stop offset="0.757" stop-color="#2FC065"/>
<stop offset="1" stop-color="#3BC57B"/>
</linearGradient>
<linearGradient id="paint43_linear_1_78" x1="611.929" y1="493.837" x2="1197.42" y2="802.296" gradientUnits="userSpaceOnUse">
<stop stop-color="#04704E"/>
<stop offset="0.133" stop-color="#0C8052"/>
<stop offset="0.549" stop-color="#25AE5F"/>
<stop offset="0.757" stop-color="#2FC065"/>
<stop offset="1" stop-color="#3AC57A"/>
</linearGradient>
<linearGradient id="paint44_linear_1_78" x1="618.844" y1="496.644" x2="1209.07" y2="801.312" gradientUnits="userSpaceOnUse">
<stop stop-color="#04704E"/>
<stop offset="0.172" stop-color="#0F8554"/>
<stop offset="0.56" stop-color="#26AF60"/>
<stop offset="0.757" stop-color="#2FC065"/>
<stop offset="1" stop-color="#3AC579"/>
</linearGradient>
<linearGradient id="paint45_linear_1_78" x1="625.961" y1="499.386" x2="1220.85" y2="800.179" gradientUnits="userSpaceOnUse">
<stop stop-color="#04704E"/>
<stop offset="0.2" stop-color="#118855"/>
<stop offset="0.566" stop-color="#26AF60"/>
<stop offset="0.757" stop-color="#2FBF65"/>
<stop offset="1" stop-color="#39C578"/>
</linearGradient>
<linearGradient id="paint46_linear_1_78" x1="633.277" y1="502.059" x2="1232.75" y2="798.892" gradientUnits="userSpaceOnUse">
<stop stop-color="#04704E"/>
<stop offset="0.228" stop-color="#138B56"/>
<stop offset="0.574" stop-color="#27B060"/>
<stop offset="0.757" stop-color="#2FBF65"/>
<stop offset="1" stop-color="#39C577"/>
</linearGradient>
<linearGradient id="paint47_linear_1_78" x1="640.791" y1="504.659" x2="1244.77" y2="797.449" gradientUnits="userSpaceOnUse">
<stop stop-color="#04704E"/>
<stop offset="0.253" stop-color="#148F56"/>
<stop offset="0.58" stop-color="#26B160"/>
<stop offset="0.757" stop-color="#2EBF64"/>
<stop offset="1" stop-color="#38C476"/>
</linearGradient>
<linearGradient id="paint48_linear_1_78" x1="648.502" y1="507.179" x2="1256.91" y2="795.846" gradientUnits="userSpaceOnUse">
<stop stop-color="#04704E"/>
<stop offset="0.274" stop-color="#159157"/>
<stop offset="0.586" stop-color="#27B260"/>
<stop offset="0.757" stop-color="#2EBF64"/>
<stop offset="1" stop-color="#38C475"/>
</linearGradient>
<linearGradient id="paint49_linear_1_78" x1="656.408" y1="509.617" x2="1269.16" y2="794.082" gradientUnits="userSpaceOnUse">
<stop stop-color="#04704E"/>
<stop offset="0.288" stop-color="#179357"/>
<stop offset="0.589" stop-color="#27B260"/>
<stop offset="0.757" stop-color="#2EBE64"/>
<stop offset="1" stop-color="#37C474"/>
</linearGradient>
<linearGradient id="paint50_linear_1_78" x1="664.506" y1="511.967" x2="1281.52" y2="792.152" gradientUnits="userSpaceOnUse">
<stop stop-color="#04704E"/>
<stop offset="0.303" stop-color="#189558"/>
<stop offset="0.593" stop-color="#28B260"/>
<stop offset="0.757" stop-color="#2EBE64"/>
<stop offset="1" stop-color="#37C473"/>
</linearGradient>
<linearGradient id="paint51_linear_1_78" x1="672.795" y1="514.225" x2="1293.98" y2="790.054" gradientUnits="userSpaceOnUse">
<stop stop-color="#04704E"/>
<stop offset="0.317" stop-color="#199759"/>
<stop offset="0.596" stop-color="#28B361"/>
<stop offset="0.757" stop-color="#2EBE64"/>
<stop offset="1" stop-color="#36C472"/>
</linearGradient>
<linearGradient id="paint52_linear_1_78" x1="681.275" y1="516.388" x2="1306.55" y2="787.786" gradientUnits="userSpaceOnUse">
<stop stop-color="#04704E"/>
<stop offset="0.326" stop-color="#199859"/>
<stop offset="0.597" stop-color="#28B361"/>
<stop offset="0.757" stop-color="#2EBD64"/>
<stop offset="1" stop-color="#36C471"/>
</linearGradient>
<linearGradient id="paint53_linear_1_78" x1="689.942" y1="518.45" x2="1319.22" y2="785.344" gradientUnits="userSpaceOnUse">
<stop stop-color="#04704E"/>
<stop offset="0.004" stop-color="#04704E"/>
<stop offset="0.337" stop-color="#1A9959"/>
<stop offset="0.6" stop-color="#27B361"/>
<stop offset="0.757" stop-color="#2DBD64"/>
<stop offset="1" stop-color="#35C470"/>
</linearGradient>
<linearGradient id="paint54_linear_1_78" x1="698.794" y1="520.408" x2="1331.99" y2="782.727" gradientUnits="userSpaceOnUse">
<stop stop-color="#04704E"/>
<stop offset="0.027" stop-color="#05734F"/>
<stop offset="0.348" stop-color="#1B9B5A"/>
<stop offset="0.602" stop-color="#28B361"/>
<stop offset="0.757" stop-color="#2DBD64"/>
<stop offset="1" stop-color="#35C46F"/>
</linearGradient>
<linearGradient id="paint55_linear_1_78" x1="707.829" y1="522.256" x2="1344.85" y2="779.931" gradientUnits="userSpaceOnUse">
<stop stop-color="#04704E"/>
<stop offset="0.042" stop-color="#07754F"/>
<stop offset="0.353" stop-color="#1B9B5A"/>
<stop offset="0.602" stop-color="#28B361"/>
<stop offset="0.757" stop-color="#2DBC64"/>
<stop offset="1" stop-color="#34C46D"/>
</linearGradient>
<linearGradient id="paint56_linear_1_78" x1="717.045" y1="523.992" x2="1357.81" y2="776.954" gradientUnits="userSpaceOnUse">
<stop stop-color="#04704E"/>
<stop offset="0.061" stop-color="#087850"/>
<stop offset="0.361" stop-color="#1C9D5B"/>
<stop offset="0.604" stop-color="#28B361"/>
<stop offset="0.757" stop-color="#2DBC64"/>
<stop offset="1" stop-color="#34C46C"/>
</linearGradient>
<linearGradient id="paint57_linear_1_78" x1="726.441" y1="525.61" x2="1370.85" y2="773.794" gradientUnits="userSpaceOnUse">
<stop stop-color="#04704E"/>
<stop offset="0.079" stop-color="#097A51"/>
<stop offset="0.368" stop-color="#1C9E5A"/>
<stop offset="0.605" stop-color="#28B460"/>
<stop offset="0.757" stop-color="#2DBC63"/>
<stop offset="1" stop-color="#33C46B"/>
</linearGradient>
<linearGradient id="paint58_linear_1_78" x1="736.011" y1="527.107" x2="1383.98" y2="770.448" gradientUnits="userSpaceOnUse">
<stop stop-color="#04704E"/>
<stop offset="0.089" stop-color="#0A7C51"/>
<stop offset="0.371" stop-color="#1D9E5A"/>
<stop offset="0.604" stop-color="#28B360"/>
<stop offset="0.757" stop-color="#2DBB63"/>
<stop offset="1" stop-color="#33C46A"/>
</linearGradient>
<linearGradient id="paint59_linear_1_78" x1="745.757" y1="528.48" x2="1397.18" y2="766.913" gradientUnits="userSpaceOnUse">
<stop stop-color="#04704E"/>
<stop offset="0.104" stop-color="#0B7E52"/>
<stop offset="0.377" stop-color="#1D9F5B"/>
<stop offset="0.605" stop-color="#28B360"/>
<stop offset="0.757" stop-color="#2CBB63"/>
<stop offset="1" stop-color="#32C469"/>
</linearGradient>
<linearGradient id="paint60_linear_1_78" x1="755.672" y1="529.722" x2="1410.47" y2="763.188" gradientUnits="userSpaceOnUse">
<stop stop-color="#04704E"/>
<stop offset="0.117" stop-color="#0C8052"/>
<stop offset="0.382" stop-color="#1DA05B"/>
<stop offset="0.605" stop-color="#28B361"/>
<stop offset="0.757" stop-color="#2CBB63"/>
<stop offset="1" stop-color="#32C468"/>
</linearGradient>
<linearGradient id="paint61_linear_1_78" x1="765.756" y1="530.832" x2="1423.83" y2="759.271" gradientUnits="userSpaceOnUse">
<stop stop-color="#04704E"/>
<stop offset="0.124" stop-color="#0D8152"/>
<stop offset="0.383" stop-color="#1EA05B"/>
<stop offset="0.604" stop-color="#28B361"/>
<stop offset="0.757" stop-color="#2CBA63"/>
<stop offset="1" stop-color="#31C467"/>
</linearGradient>
<linearGradient id="paint62_linear_1_78" x1="776.006" y1="531.804" x2="1437.26" y2="755.159" gradientUnits="userSpaceOnUse">
<stop stop-color="#04704E"/>
<stop offset="0.245" stop-color="#138D56"/>
<stop offset="0.551" stop-color="#23AB5E"/>
<stop offset="0.813" stop-color="#2DBD64"/>
<stop offset="1" stop-color="#31C466"/>
</linearGradient>
<linearGradient id="paint63_linear_1_78" x1="642.525" y1="492.98" x2="469.131" y2="904.424" gradientUnits="userSpaceOnUse">
<stop stop-color="#5DE1A8"/>
<stop offset="0.433" stop-color="#4FCF99"/>
<stop offset="1" stop-color="#25BD77"/>
</linearGradient>
<linearGradient id="paint64_linear_1_78" x1="866.094" y1="-37.526" x2="434.901" y2="985.646" gradientUnits="userSpaceOnUse">
<stop offset="0.186" stop-color="#D9FAEC"/>
<stop offset="1"/>
</linearGradient>
<linearGradient id="paint65_linear_1_78" x1="640.859" y1="66.4801" x2="1116.96" y2="798.265" gradientUnits="userSpaceOnUse">
<stop offset="0.186" stop-color="#D9FAEC"/>
<stop offset="1"/>
</linearGradient>
<clipPath id="clip0_1_78">
<rect width="1401" height="1143" fill="white"/>
</clipPath>
</defs>
</svg>
